<svg xmlns="http://www.w3.org/2000/svg" xmlns:bx="https://boxy-svg.com" viewBox="-249.035 138.568 729.182 264.053" width="723.6px" height="259.7px" preserveAspectRatio="none">
  <defs>
    <bx:guide x="500.21420173702927" y="-254.90187838202223" angle="0"/>
    <linearGradient id="gradient-1" bx:pinned="true">
      <stop offset="0" style="stop-color: rgb(49, 51, 56);"/>
      <stop offset="0.021" style="stop-color: rgb(78, 80, 88);"/>
      <stop offset="1" style="stop-color: rgb(69, 71, 78);"/>
      <stop offset="1" style="stop-color: rgb(49, 51, 56);"/>
    </linearGradient>
    <bx:guide x="613.6807762708434" y="-264.8961779505197" angle="0"/>
    <bx:guide x="570.7738530495853" y="-265.5433480326421" angle="0"/>
    <clipPath id="clip-2">
      <circle style="stroke: rgb(0, 0, 0); stroke-width: 0px; fill: rgb(11, 3, 23);" transform="matrix(1, 0, 0, 1.000005, -1613.503566, -229.347202)" cx="987" cy="666.6" r="37.256"/>
    </clipPath>
    <bx:export>
      <bx:file format="svg" width="723.6" height="259.7" normalization="{&quot;convertTextsToPaths&quot;:true}"/>
    </bx:export>
    <clipPath id="clip-0">
      <rect x="452.81" y="-480.29" width="723.633" height="320.789" rx="4" ry="4" style="fill: rgb(49, 51, 56); stroke: rgb(80, 83, 92);"/>
    </clipPath>
    <linearGradient gradientUnits="userSpaceOnUse" x1="814.626" y1="-419.16" x2="814.626" y2="-159.506" id="gradient-0" gradientTransform="matrix(0.999993, -0.003626, 0.003347, 0.923029, 1.408099, -29.309626)">
      <stop offset="0" style="stop-color: rgb(47 47 47);"/>
      <stop offset="1" style="stop-color: rgb(8, 8, 15); stop-opacity: 0;"/>
    </linearGradient>
  </defs>
  <g transform="matrix(1, 0, 0, 1, -699.786, 559.506)">
    <rect xmlns="http://www.w3.org/2000/svg" x="452.81" y="-419.16" width="723.633" height="259.654" rx="16.918" ry="16.918" style="stroke: url(&quot;#gradient-0&quot;);fill: #14141b;stroke-width: 2px;"/>
    <circle style="stroke-width: 0px; stroke: rgb(0, 0, 0); fill: rgb(144, 144, 144);" cx="526.446" cy="-254.05" r="26.446"/>
    <rect x="524.959" y="-296.9" width="39.609" height="12.779" rx="3" ry="3" style="stroke-width: 3px; fill: none; stroke: rgb(78, 80, 88);"/>
    <rect x="522.437" y="-287.2" width="48.164" height="5.75" style="stroke: rgb(0, 0, 0);stroke-width: 0px;fill: #14141b;"/>
    <rect x="522.438" y="-287.2" width="7.847" height="5.75" style="stroke: rgb(0, 0, 0);stroke-width: 0px;fill: #14141b;" transform="matrix(1, 0, 0, 1, 38.1523, -4.53227)"/>
    <rect x="522.438" y="-287.2" width="7.847" height="5.75" style="stroke: rgb(0, 0, 0);stroke-width: 0px;fill: #14141b;" transform="matrix(1, 0, 0, 1, 37.8817, -9.87629)"/>
    <rect x="522.438" y="-287.2" width="7.847" height="5.75" style="stroke: rgb(0, 0, 0);stroke-width: 0px;fill: #14141b;" transform="matrix(1, 0, 0, 1, 37.8817, -12.8)"/>
    <circle style="stroke-width: 0px;stroke: rgb(0, 0, 0);fill: #1e1e28;" cx="526.446" cy="-360.64" r="26.446"/>
    <circle style="stroke-width: 0px; stroke: rgb(0, 0, 0); fill: rgb(77, 77, 77);" cx="578.948" cy="-296.24" r="10.43"/>
    <path d="M 574.157 -367.42 L 574.157 -372.332 L 569.687 -379.016 L 571.554 -379.016 L 573.84 -375.52 Q 574.473 -374.539 575.019 -373.558 Q 575.541 -374.468 576.285 -375.607 L 578.531 -379.016 L 580.319 -379.016 L 575.691 -372.332 L 575.691 -367.42 Z M 579.005 -371.62 Q 579.005 -373.954 580.303 -375.077 Q 581.386 -376.01 582.945 -376.01 Q 584.677 -376.01 585.777 -374.875 Q 586.876 -373.74 586.876 -371.739 Q 586.876 -370.117 586.39 -369.188 Q 585.903 -368.258 584.974 -367.744 Q 584.044 -367.23 582.945 -367.23 Q 581.181 -367.23 580.093 -368.361 Q 579.005 -369.492 579.005 -371.62 Z M 580.469 -371.62 Q 580.469 -370.007 581.173 -369.204 Q 581.877 -368.401 582.945 -368.401 Q 584.005 -368.401 584.709 -369.208 Q 585.413 -370.015 585.413 -371.668 Q 585.413 -373.226 584.705 -374.029 Q 583.997 -374.832 582.945 -374.832 Q 581.877 -374.832 581.173 -374.033 Q 580.469 -373.234 580.469 -371.62 Z M 593.868 -367.42 L 593.868 -368.654 Q 592.887 -367.23 591.203 -367.23 Q 590.459 -367.23 589.814 -367.515 Q 589.17 -367.8 588.857 -368.231 Q 588.545 -368.662 588.418 -369.287 Q 588.331 -369.706 588.331 -370.616 L 588.331 -375.821 L 589.755 -375.821 L 589.755 -371.162 Q 589.755 -370.046 589.842 -369.659 Q 589.977 -369.097 590.412 -368.777 Q 590.847 -368.456 591.487 -368.456 Q 592.128 -368.456 592.69 -368.785 Q 593.251 -369.113 593.485 -369.678 Q 593.718 -370.244 593.718 -371.32 L 593.718 -375.821 L 595.142 -375.821 L 595.142 -367.42 Z M 596.621 -369.928 L 598.029 -370.149 Q 598.147 -369.303 598.689 -368.852 Q 599.231 -368.401 600.204 -368.401 Q 601.185 -368.401 601.66 -368.8 Q 602.134 -369.2 602.134 -369.738 Q 602.134 -370.22 601.715 -370.497 Q 601.422 -370.687 600.259 -370.98 Q 598.693 -371.375 598.088 -371.664 Q 597.483 -371.953 597.171 -372.463 Q 596.858 -372.973 596.858 -373.59 Q 596.858 -374.152 597.115 -374.63 Q 597.372 -375.109 597.815 -375.425 Q 598.147 -375.67 598.721 -375.84 Q 599.294 -376.01 599.951 -376.01 Q 600.94 -376.01 601.687 -375.726 Q 602.435 -375.441 602.791 -374.954 Q 603.147 -374.468 603.281 -373.653 L 601.889 -373.463 Q 601.794 -374.112 601.339 -374.476 Q 600.884 -374.84 600.054 -374.84 Q 599.073 -374.84 598.654 -374.515 Q 598.234 -374.191 598.234 -373.756 Q 598.234 -373.479 598.408 -373.258 Q 598.582 -373.028 598.954 -372.878 Q 599.168 -372.799 600.212 -372.514 Q 601.723 -372.111 602.32 -371.854 Q 602.917 -371.597 603.257 -371.106 Q 603.598 -370.616 603.598 -369.888 Q 603.598 -369.176 603.182 -368.547 Q 602.767 -367.918 601.984 -367.574 Q 601.201 -367.23 600.212 -367.23 Q 598.575 -367.23 597.716 -367.91 Q 596.858 -368.591 596.621 -369.928 Z M 604.566 -369.928 L 605.974 -370.149 Q 606.092 -369.303 606.634 -368.852 Q 607.176 -368.401 608.149 -368.401 Q 609.13 -368.401 609.604 -368.8 Q 610.079 -369.2 610.079 -369.738 Q 610.079 -370.22 609.66 -370.497 Q 609.367 -370.687 608.204 -370.98 Q 606.638 -371.375 606.033 -371.664 Q 605.428 -371.953 605.115 -372.463 Q 604.803 -372.973 604.803 -373.59 Q 604.803 -374.152 605.06 -374.63 Q 605.317 -375.109 605.76 -375.425 Q 606.092 -375.67 606.666 -375.84 Q 607.239 -376.01 607.896 -376.01 Q 608.884 -376.01 609.632 -375.726 Q 610.38 -375.441 610.735 -374.954 Q 611.091 -374.468 611.226 -373.653 L 609.834 -373.463 Q 609.739 -374.112 609.284 -374.476 Q 608.829 -374.84 607.999 -374.84 Q 607.018 -374.84 606.598 -374.515 Q 606.179 -374.191 606.179 -373.756 Q 606.179 -373.479 606.353 -373.258 Q 606.527 -373.028 606.899 -372.878 Q 607.113 -372.799 608.157 -372.514 Q 609.668 -372.111 610.265 -371.854 Q 610.862 -371.597 611.202 -371.106 Q 611.542 -370.616 611.542 -369.888 Q 611.542 -369.176 611.127 -368.547 Q 610.712 -367.918 609.929 -367.574 Q 609.146 -367.23 608.157 -367.23 Q 606.519 -367.23 605.661 -367.91 Q 604.803 -368.591 604.566 -369.928 Z M 618.83 -370.125 L 620.302 -369.943 Q 619.954 -368.654 619.012 -367.942 Q 618.071 -367.23 616.608 -367.23 Q 614.765 -367.23 613.685 -368.365 Q 612.605 -369.5 612.605 -371.549 Q 612.605 -373.669 613.697 -374.84 Q 614.788 -376.01 616.529 -376.01 Q 618.213 -376.01 619.281 -374.863 Q 620.349 -373.716 620.349 -371.636 Q 620.349 -371.51 620.341 -371.256 L 614.076 -371.256 Q 614.156 -369.872 614.86 -369.137 Q 615.564 -368.401 616.616 -368.401 Q 617.399 -368.401 617.952 -368.812 Q 618.506 -369.224 618.83 -370.125 Z M 614.156 -372.427 L 618.846 -372.427 Q 618.751 -373.487 618.308 -374.017 Q 617.628 -374.84 616.544 -374.84 Q 615.564 -374.84 614.895 -374.183 Q 614.227 -373.527 614.156 -372.427 Z M 622.247 -367.42 L 622.247 -374.713 L 620.99 -374.713 L 620.99 -375.821 L 622.247 -375.821 L 622.247 -376.714 Q 622.247 -377.561 622.398 -377.972 Q 622.603 -378.526 623.121 -378.87 Q 623.64 -379.214 624.573 -379.214 Q 625.174 -379.214 625.902 -379.072 L 625.688 -377.83 Q 625.245 -377.909 624.85 -377.909 Q 624.201 -377.909 623.932 -377.632 Q 623.663 -377.355 623.663 -376.596 L 623.663 -375.821 L 625.301 -375.821 L 625.301 -374.713 L 623.663 -374.713 L 623.663 -367.42 Z M 626.724 -367.42 L 626.724 -369.042 L 628.346 -369.042 L 628.346 -367.42 Z" style="fill: rgb(255, 255, 255); text-wrap-mode: nowrap;"/>
    <path d="M 570.44 -260.27 L 570.44 -271.866 L 572.014 -271.866 L 578.105 -262.762 L 578.105 -271.866 L 579.576 -271.866 L 579.576 -260.27 L 578.002 -260.27 L 571.911 -269.382 L 571.911 -260.27 Z M 581.22 -264.47 Q 581.22 -266.804 582.517 -267.927 Q 583.601 -268.86 585.159 -268.86 Q 586.891 -268.86 587.991 -267.725 Q 589.09 -266.59 589.09 -264.589 Q 589.09 -262.967 588.604 -262.038 Q 588.117 -261.108 587.188 -260.594 Q 586.258 -260.08 585.159 -260.08 Q 583.395 -260.08 582.307 -261.211 Q 581.22 -262.342 581.22 -264.47 Z M 582.683 -264.47 Q 582.683 -262.857 583.387 -262.054 Q 584.091 -261.251 585.159 -261.251 Q 586.219 -261.251 586.923 -262.058 Q 587.627 -262.865 587.627 -264.518 Q 587.627 -266.076 586.919 -266.879 Q 586.211 -267.682 585.159 -267.682 Q 584.091 -267.682 583.387 -266.883 Q 582.683 -266.084 582.683 -264.47 Z M 592.911 -260.27 L 589.715 -268.671 L 591.218 -268.671 L 593.021 -263.64 Q 593.314 -262.825 593.559 -261.947 Q 593.749 -262.611 594.089 -263.545 L 595.956 -268.671 L 597.419 -268.671 L 594.239 -260.27 Z M 604.004 -261.306 Q 603.213 -260.634 602.481 -260.357 Q 601.749 -260.08 600.911 -260.08 Q 599.526 -260.08 598.783 -260.756 Q 598.039 -261.433 598.039 -262.485 Q 598.039 -263.102 598.32 -263.612 Q 598.601 -264.122 599.056 -264.431 Q 599.511 -264.739 600.08 -264.897 Q 600.499 -265.008 601.346 -265.111 Q 603.07 -265.317 603.885 -265.601 Q 603.893 -265.894 603.893 -265.973 Q 603.893 -266.843 603.489 -267.199 Q 602.944 -267.682 601.868 -267.682 Q 600.863 -267.682 600.385 -267.33 Q 599.906 -266.978 599.677 -266.084 L 598.284 -266.274 Q 598.474 -267.168 598.909 -267.717 Q 599.344 -268.267 600.167 -268.564 Q 600.99 -268.86 602.073 -268.86 Q 603.149 -268.86 603.822 -268.607 Q 604.494 -268.354 604.81 -267.971 Q 605.127 -267.587 605.253 -267.002 Q 605.325 -266.638 605.325 -265.688 L 605.325 -263.79 Q 605.325 -261.805 605.415 -261.279 Q 605.506 -260.753 605.775 -260.27 L 604.288 -260.27 Q 604.067 -260.713 604.004 -261.306 Z M 603.885 -264.486 Q 603.11 -264.17 601.559 -263.948 Q 600.681 -263.822 600.317 -263.663 Q 599.954 -263.505 599.756 -263.201 Q 599.558 -262.896 599.558 -262.524 Q 599.558 -261.955 599.989 -261.575 Q 600.42 -261.195 601.251 -261.195 Q 602.073 -261.195 602.714 -261.555 Q 603.355 -261.915 603.655 -262.54 Q 603.885 -263.023 603.885 -263.964 Z" style="fill: rgb(104, 31, 209); text-wrap-mode: nowrap;"/>
    <path d="M 599.397 -292.45 L 599.397 -295.998 L 596.169 -300.825 L 597.518 -300.825 L 599.169 -298.3 Q 599.626 -297.592 600.02 -296.883 Q 600.397 -297.54 600.934 -298.363 L 602.556 -300.825 L 603.847 -300.825 L 600.505 -295.998 L 600.505 -292.45 Z M 603.585 -295.484 Q 603.585 -297.169 604.522 -297.98 Q 605.305 -298.654 606.43 -298.654 Q 607.682 -298.654 608.476 -297.834 Q 609.27 -297.015 609.27 -295.569 Q 609.27 -294.398 608.918 -293.727 Q 608.567 -293.056 607.896 -292.684 Q 607.225 -292.313 606.43 -292.313 Q 605.156 -292.313 604.371 -293.13 Q 603.585 -293.947 603.585 -295.484 Z M 604.642 -295.484 Q 604.642 -294.318 605.151 -293.738 Q 605.659 -293.158 606.43 -293.158 Q 607.196 -293.158 607.704 -293.741 Q 608.213 -294.324 608.213 -295.518 Q 608.213 -296.643 607.702 -297.223 Q 607.19 -297.803 606.43 -297.803 Q 605.659 -297.803 605.151 -297.226 Q 604.642 -296.649 604.642 -295.484 Z M 614.124 -292.45 L 614.124 -293.341 Q 613.415 -292.313 612.198 -292.313 Q 611.661 -292.313 611.196 -292.519 Q 610.73 -292.724 610.505 -293.036 Q 610.279 -293.347 610.187 -293.798 Q 610.125 -294.101 610.125 -294.758 L 610.125 -298.517 L 611.153 -298.517 L 611.153 -295.152 Q 611.153 -294.347 611.216 -294.067 Q 611.313 -293.661 611.627 -293.43 Q 611.941 -293.198 612.404 -293.198 Q 612.867 -293.198 613.272 -293.435 Q 613.678 -293.673 613.847 -294.081 Q 614.015 -294.49 614.015 -295.266 L 614.015 -298.517 L 615.043 -298.517 L 615.043 -292.45 Z M 615.915 -294.261 L 616.932 -294.421 Q 617.018 -293.81 617.409 -293.484 Q 617.801 -293.158 618.503 -293.158 Q 619.212 -293.158 619.554 -293.447 Q 619.897 -293.735 619.897 -294.124 Q 619.897 -294.472 619.594 -294.672 Q 619.383 -294.809 618.543 -295.021 Q 617.412 -295.306 616.975 -295.515 Q 616.538 -295.723 616.312 -296.092 Q 616.087 -296.46 616.087 -296.906 Q 616.087 -297.312 616.272 -297.657 Q 616.458 -298.003 616.778 -298.231 Q 617.018 -298.409 617.432 -298.531 Q 617.846 -298.654 618.32 -298.654 Q 619.035 -298.654 619.574 -298.449 Q 620.114 -298.243 620.371 -297.892 Q 620.628 -297.54 620.726 -296.952 L 619.72 -296.815 Q 619.652 -297.283 619.323 -297.546 Q 618.995 -297.809 618.395 -297.809 Q 617.686 -297.809 617.384 -297.574 Q 617.081 -297.34 617.081 -297.026 Q 617.081 -296.826 617.206 -296.666 Q 617.332 -296.5 617.601 -296.392 Q 617.755 -296.335 618.509 -296.129 Q 619.6 -295.838 620.031 -295.652 Q 620.463 -295.466 620.708 -295.112 Q 620.954 -294.758 620.954 -294.232 Q 620.954 -293.718 620.654 -293.264 Q 620.354 -292.81 619.789 -292.561 Q 619.223 -292.313 618.509 -292.313 Q 617.326 -292.313 616.707 -292.804 Q 616.087 -293.296 615.915 -294.261 Z M 622.095 -294.261 L 623.111 -294.421 Q 623.197 -293.81 623.589 -293.484 Q 623.98 -293.158 624.683 -293.158 Q 625.391 -293.158 625.734 -293.447 Q 626.076 -293.735 626.076 -294.124 Q 626.076 -294.472 625.774 -294.672 Q 625.562 -294.809 624.723 -295.021 Q 623.591 -295.306 623.154 -295.515 Q 622.717 -295.723 622.492 -296.092 Q 622.266 -296.46 622.266 -296.906 Q 622.266 -297.312 622.452 -297.657 Q 622.637 -298.003 622.957 -298.231 Q 623.197 -298.409 623.611 -298.531 Q 624.026 -298.654 624.5 -298.654 Q 625.214 -298.654 625.754 -298.449 Q 626.294 -298.243 626.551 -297.892 Q 626.808 -297.54 626.905 -296.952 L 625.899 -296.815 Q 625.831 -297.283 625.502 -297.546 Q 625.174 -297.809 624.574 -297.809 Q 623.866 -297.809 623.563 -297.574 Q 623.26 -297.34 623.26 -297.026 Q 623.26 -296.826 623.386 -296.666 Q 623.511 -296.5 623.78 -296.392 Q 623.934 -296.335 624.688 -296.129 Q 625.779 -295.838 626.211 -295.652 Q 626.642 -295.466 626.888 -295.112 Q 627.133 -294.758 627.133 -294.232 Q 627.133 -293.718 626.833 -293.264 Q 626.534 -292.81 625.968 -292.561 Q 625.402 -292.313 624.688 -292.313 Q 623.506 -292.313 622.886 -292.804 Q 622.266 -293.296 622.095 -294.261 Z M 632.838 -294.404 L 633.901 -294.272 Q 633.65 -293.341 632.97 -292.827 Q 632.29 -292.313 631.233 -292.313 Q 629.902 -292.313 629.122 -293.133 Q 628.342 -293.953 628.342 -295.432 Q 628.342 -296.963 629.131 -297.809 Q 629.919 -298.654 631.176 -298.654 Q 632.393 -298.654 633.164 -297.826 Q 633.935 -296.997 633.935 -295.495 Q 633.935 -295.404 633.93 -295.221 L 629.405 -295.221 Q 629.462 -294.221 629.971 -293.69 Q 630.479 -293.158 631.239 -293.158 Q 631.804 -293.158 632.204 -293.455 Q 632.604 -293.753 632.838 -294.404 Z M 629.462 -296.066 L 632.85 -296.066 Q 632.781 -296.832 632.461 -297.215 Q 631.97 -297.809 631.187 -297.809 Q 630.479 -297.809 629.996 -297.335 Q 629.513 -296.86 629.462 -296.066 Z M 635.11 -292.45 L 635.11 -297.717 L 634.202 -297.717 L 634.202 -298.517 L 635.11 -298.517 L 635.11 -299.163 Q 635.11 -299.774 635.219 -300.071 Q 635.367 -300.471 635.741 -300.719 Q 636.116 -300.968 636.79 -300.968 Q 637.224 -300.968 637.749 -300.865 L 637.595 -299.968 Q 637.275 -300.025 636.99 -300.025 Q 636.521 -300.025 636.327 -299.825 Q 636.133 -299.625 636.133 -299.077 L 636.133 -298.517 L 637.315 -298.517 L 637.315 -297.717 L 636.133 -297.717 L 636.133 -292.45 Z M 637.804 -292.45 L 637.804 -293.621 L 638.975 -293.621 L 638.975 -292.45 Z" style="fill: rgb(217, 217, 217); text-wrap-mode: nowrap;"/>
    <path d="M 647.012 -292.97 L 645.151 -299.985 L 646.103 -299.985 L 647.17 -295.387 Q 647.342 -294.664 647.467 -293.951 Q 647.735 -295.075 647.782 -295.248 L 649.118 -299.985 L 650.237 -299.985 L 651.242 -296.434 Q 651.62 -295.114 651.788 -293.951 Q 651.922 -294.616 652.137 -295.477 L 653.238 -299.985 L 654.171 -299.985 L 652.247 -292.97 L 651.352 -292.97 L 649.874 -298.315 Q 649.687 -298.985 649.653 -299.138 Q 649.543 -298.655 649.448 -298.315 L 647.96 -292.97 Z M 654.505 -292.97 L 654.505 -299.985 L 655.366 -299.985 L 655.366 -297.468 Q 655.969 -298.167 656.888 -298.167 Q 657.452 -298.167 657.868 -297.944 Q 658.285 -297.722 658.464 -297.329 Q 658.644 -296.937 658.644 -296.19 L 658.644 -292.97 L 657.782 -292.97 L 657.782 -296.19 Q 657.782 -296.836 657.502 -297.131 Q 657.222 -297.425 656.71 -297.425 Q 656.328 -297.425 655.99 -297.226 Q 655.653 -297.028 655.509 -296.688 Q 655.366 -296.348 655.366 -295.75 L 655.366 -292.97 Z M 663.117 -293.597 Q 662.639 -293.19 662.196 -293.023 Q 661.753 -292.855 661.246 -292.855 Q 660.409 -292.855 659.959 -293.264 Q 659.509 -293.673 659.509 -294.31 Q 659.509 -294.683 659.679 -294.992 Q 659.849 -295.3 660.124 -295.487 Q 660.399 -295.674 660.744 -295.769 Q 660.997 -295.836 661.509 -295.899 Q 662.552 -296.023 663.045 -296.195 Q 663.05 -296.372 663.05 -296.42 Q 663.05 -296.946 662.806 -297.162 Q 662.476 -297.454 661.825 -297.454 Q 661.217 -297.454 660.928 -297.241 Q 660.638 -297.028 660.5 -296.487 L 659.657 -296.602 Q 659.772 -297.143 660.035 -297.475 Q 660.299 -297.808 660.796 -297.987 Q 661.294 -298.167 661.949 -298.167 Q 662.6 -298.167 663.007 -298.014 Q 663.414 -297.86 663.605 -297.628 Q 663.797 -297.396 663.873 -297.042 Q 663.916 -296.822 663.916 -296.248 L 663.916 -295.099 Q 663.916 -293.898 663.971 -293.58 Q 664.026 -293.262 664.189 -292.97 L 663.289 -292.97 Q 663.155 -293.238 663.117 -293.597 Z M 663.045 -295.52 Q 662.576 -295.329 661.638 -295.195 Q 661.107 -295.119 660.887 -295.023 Q 660.667 -294.927 660.547 -294.743 Q 660.428 -294.559 660.428 -294.334 Q 660.428 -293.989 660.689 -293.76 Q 660.949 -293.53 661.452 -293.53 Q 661.949 -293.53 662.337 -293.748 Q 662.725 -293.965 662.907 -294.343 Q 663.045 -294.635 663.045 -295.205 Z M 666.978 -293.74 L 667.102 -292.98 Q 666.739 -292.903 666.452 -292.903 Q 665.983 -292.903 665.724 -293.051 Q 665.466 -293.2 665.361 -293.441 Q 665.255 -293.683 665.255 -294.458 L 665.255 -297.382 L 664.624 -297.382 L 664.624 -298.052 L 665.255 -298.052 L 665.255 -299.31 L 666.112 -299.827 L 666.112 -298.052 L 666.978 -298.052 L 666.978 -297.382 L 666.112 -297.382 L 666.112 -294.41 Q 666.112 -294.042 666.157 -293.937 Q 666.203 -293.831 666.306 -293.769 Q 666.409 -293.707 666.6 -293.707 Q 666.744 -293.707 666.978 -293.74 Z M 670.399 -298.995 L 670.399 -299.985 L 671.26 -299.985 L 671.26 -298.995 Z M 670.399 -292.97 L 670.399 -298.052 L 671.26 -298.052 L 671.26 -292.97 Z M 671.815 -294.487 L 672.667 -294.621 Q 672.738 -294.109 673.066 -293.836 Q 673.394 -293.563 673.983 -293.563 Q 674.576 -293.563 674.863 -293.805 Q 675.15 -294.047 675.15 -294.372 Q 675.15 -294.664 674.897 -294.831 Q 674.719 -294.946 674.016 -295.123 Q 673.069 -295.363 672.703 -295.537 Q 672.336 -295.712 672.147 -296.021 Q 671.958 -296.329 671.958 -296.702 Q 671.958 -297.042 672.114 -297.332 Q 672.269 -297.621 672.537 -297.813 Q 672.738 -297.961 673.085 -298.064 Q 673.432 -298.167 673.829 -298.167 Q 674.428 -298.167 674.88 -297.994 Q 675.332 -297.822 675.547 -297.528 Q 675.763 -297.234 675.844 -296.741 L 675.002 -296.626 Q 674.944 -297.018 674.669 -297.238 Q 674.394 -297.458 673.892 -297.458 Q 673.298 -297.458 673.045 -297.262 Q 672.791 -297.066 672.791 -296.803 Q 672.791 -296.635 672.896 -296.501 Q 673.002 -296.363 673.227 -296.272 Q 673.356 -296.224 673.987 -296.052 Q 674.901 -295.808 675.263 -295.652 Q 675.624 -295.497 675.83 -295.2 Q 676.035 -294.903 676.035 -294.463 Q 676.035 -294.032 675.784 -293.652 Q 675.533 -293.271 675.059 -293.063 Q 674.585 -292.855 673.987 -292.855 Q 672.997 -292.855 672.478 -293.267 Q 671.958 -293.678 671.815 -294.487 Z M 680.205 -292.97 L 680.205 -299.985 L 681.157 -299.985 L 684.841 -294.477 L 684.841 -299.985 L 685.732 -299.985 L 685.732 -292.97 L 684.779 -292.97 L 681.095 -298.483 L 681.095 -292.97 Z M 685.963 -295.511 Q 685.963 -296.923 686.748 -297.602 Q 687.403 -298.167 688.346 -298.167 Q 689.394 -298.167 690.059 -297.48 Q 690.724 -296.793 690.724 -295.583 Q 690.724 -294.602 690.43 -294.039 Q 690.135 -293.477 689.573 -293.166 Q 689.011 -292.855 688.346 -292.855 Q 687.279 -292.855 686.621 -293.539 Q 685.963 -294.224 685.963 -295.511 Z M 686.848 -295.511 Q 686.848 -294.535 687.274 -294.049 Q 687.7 -293.563 688.346 -293.563 Q 688.987 -293.563 689.413 -294.051 Q 689.839 -294.54 689.839 -295.54 Q 689.839 -296.482 689.41 -296.968 Q 688.982 -297.454 688.346 -297.454 Q 687.7 -297.454 687.274 -296.97 Q 686.848 -296.487 686.848 -295.511 Z M 692.992 -292.97 L 691.058 -298.052 L 691.967 -298.052 L 693.059 -295.008 Q 693.236 -294.516 693.384 -293.984 Q 693.499 -294.386 693.705 -294.951 L 694.834 -298.052 L 695.719 -298.052 L 693.795 -292.97 Z M 700.192 -293.597 Q 699.714 -293.19 699.271 -293.023 Q 698.829 -292.855 698.321 -292.855 Q 697.484 -292.855 697.034 -293.264 Q 696.584 -293.673 696.584 -294.31 Q 696.584 -294.683 696.754 -294.992 Q 696.924 -295.3 697.199 -295.487 Q 697.474 -295.674 697.819 -295.769 Q 698.073 -295.836 698.585 -295.899 Q 699.628 -296.023 700.121 -296.195 Q 700.125 -296.372 700.125 -296.42 Q 700.125 -296.946 699.881 -297.162 Q 699.551 -297.454 698.9 -297.454 Q 698.293 -297.454 698.003 -297.241 Q 697.714 -297.028 697.575 -296.487 L 696.733 -296.602 Q 696.848 -297.143 697.111 -297.475 Q 697.374 -297.808 697.872 -297.987 Q 698.369 -298.167 699.025 -298.167 Q 699.676 -298.167 700.082 -298.014 Q 700.489 -297.86 700.681 -297.628 Q 700.872 -297.396 700.949 -297.042 Q 700.992 -296.822 700.992 -296.248 L 700.992 -295.099 Q 700.992 -293.898 701.047 -293.58 Q 701.102 -293.262 701.264 -292.97 L 700.365 -292.97 Q 700.231 -293.238 700.192 -293.597 Z M 700.121 -295.52 Q 699.652 -295.329 698.714 -295.195 Q 698.183 -295.119 697.963 -295.023 Q 697.742 -294.927 697.623 -294.743 Q 697.503 -294.559 697.503 -294.334 Q 697.503 -293.989 697.764 -293.76 Q 698.025 -293.53 698.527 -293.53 Q 699.025 -293.53 699.412 -293.748 Q 699.8 -293.965 699.982 -294.343 Q 700.121 -294.635 700.121 -295.205 Z M 703.785 -294.697 Q 703.781 -294.87 703.781 -294.956 Q 703.781 -295.463 703.924 -295.832 Q 704.029 -296.109 704.264 -296.391 Q 704.436 -296.597 704.884 -296.992 Q 705.331 -297.387 705.465 -297.621 Q 705.599 -297.856 705.599 -298.133 Q 705.599 -298.636 705.207 -299.016 Q 704.814 -299.396 704.245 -299.396 Q 703.695 -299.396 703.326 -299.052 Q 702.958 -298.707 702.843 -297.975 L 701.958 -298.081 Q 702.077 -299.062 702.668 -299.583 Q 703.259 -300.105 704.23 -300.105 Q 705.259 -300.105 705.872 -299.545 Q 706.484 -298.985 706.484 -298.191 Q 706.484 -297.731 706.269 -297.344 Q 706.054 -296.956 705.427 -296.401 Q 705.006 -296.028 704.876 -295.851 Q 704.747 -295.674 704.685 -295.444 Q 704.623 -295.214 704.613 -294.697 Z M 703.733 -292.97 L 703.733 -293.951 L 704.714 -293.951 L 704.714 -292.97 Z" style="fill: rgb(182, 182, 182); text-wrap-mode: nowrap;"/>
    <line style="fill: rgb(216, 216, 216); stroke-linecap: round; stroke: rgb(147, 154, 163); stroke-width: 3px;" x1="636.485" y1="-373.24" x2="658.935" y2="-373.24"/>
    <line style="fill: rgb(216, 216, 216); stroke-linecap: round; stroke: rgb(147, 154, 163); stroke-width: 3px;" x1="615.025" y1="-265.05" x2="637.475" y2="-265.05"/>
    <path style="fill: rgb(255, 255, 255); text-wrap-mode: nowrap;"/>
    <path d="M 573.108 -342.56 L 570.031 -354.16 L 571.605 -354.16 L 573.369 -346.56 C 573.559 -345.76 573.722 -344.97 573.859 -344.18 C 574.154 -345.42 574.328 -346.13 574.381 -346.32 L 576.588 -354.16 L 578.439 -354.16 L 580.1 -348.29 C 580.517 -346.83 580.817 -345.46 581.002 -344.18 C 581.15 -344.92 581.343 -345.76 581.58 -346.7 L 583.399 -354.16 L 584.941 -354.16 L 581.762 -342.56 L 580.282 -342.56 L 577.838 -351.4 C 577.633 -352.13 577.511 -352.59 577.474 -352.76 C 577.353 -352.22 577.239 -351.77 577.134 -351.4 L 574.674 -342.56 L 573.108 -342.56 Z M 585.908 -342.56 L 585.908 -354.16 L 587.331 -354.16 L 587.331 -350 C 587.996 -350.76 588.834 -351.15 589.847 -351.15 C 590.469 -351.15 591.009 -351.03 591.468 -350.78 C 591.927 -350.54 592.256 -350.2 592.453 -349.77 C 592.651 -349.33 592.75 -348.71 592.75 -347.88 L 592.75 -342.56 L 591.326 -342.56 L 591.326 -347.88 C 591.326 -348.6 591.172 -349.11 590.863 -349.44 C 590.555 -349.76 590.119 -349.92 589.554 -349.92 C 589.132 -349.92 588.735 -349.81 588.364 -349.6 C 587.992 -349.38 587.727 -349.08 587.569 -348.71 C 587.41 -348.33 587.331 -347.81 587.331 -347.16 L 587.331 -342.56 L 585.908 -342.56 Z M 600.217 -343.6 C 599.69 -343.15 599.182 -342.83 598.694 -342.65 C 598.206 -342.46 597.683 -342.37 597.124 -342.37 C 596.201 -342.37 595.492 -342.6 594.996 -343.05 C 594.501 -343.5 594.253 -344.07 594.253 -344.77 C 594.253 -345.19 594.346 -345.56 594.533 -345.9 C 594.72 -346.24 594.966 -346.51 595.269 -346.72 C 595.572 -346.93 595.914 -347.08 596.293 -347.19 C 596.573 -347.26 596.995 -347.33 597.559 -347.4 C 598.708 -347.54 599.555 -347.7 600.098 -347.89 C 600.103 -348.09 600.106 -348.21 600.106 -348.26 C 600.106 -348.84 599.972 -349.25 599.703 -349.49 C 599.339 -349.81 598.798 -349.97 598.081 -349.97 C 597.411 -349.97 596.917 -349.86 596.598 -349.62 C 596.279 -349.38 596.043 -348.97 595.89 -348.37 L 594.498 -348.56 C 594.625 -349.16 594.833 -349.64 595.123 -350.01 C 595.413 -350.37 595.832 -350.66 596.38 -350.85 C 596.929 -351.05 597.564 -351.15 598.287 -351.15 C 599.004 -351.15 599.586 -351.07 600.035 -350.9 C 600.483 -350.73 600.813 -350.52 601.024 -350.26 C 601.235 -350 601.382 -349.68 601.467 -349.29 C 601.514 -349.05 601.538 -348.61 601.538 -347.98 L 601.538 -346.08 C 601.538 -344.76 601.568 -343.92 601.629 -343.57 C 601.69 -343.22 601.81 -342.88 601.989 -342.56 L 600.502 -342.56 C 600.354 -342.86 600.259 -343.2 600.217 -343.6 Z M 600.098 -346.78 C 599.581 -346.56 598.806 -346.39 597.773 -346.24 C 597.188 -346.15 596.774 -346.06 596.531 -345.95 C 596.288 -345.85 596.101 -345.69 595.969 -345.49 C 595.837 -345.29 595.771 -345.06 595.771 -344.81 C 595.771 -344.44 595.915 -344.12 596.202 -343.87 C 596.489 -343.61 596.91 -343.49 597.464 -343.49 C 598.013 -343.49 598.5 -343.61 598.927 -343.85 C 599.354 -344.08 599.668 -344.41 599.869 -344.83 C 600.022 -345.15 600.098 -345.63 600.098 -346.25 L 600.098 -346.78 Z M 606.671 -343.83 L 606.877 -342.58 C 606.476 -342.49 606.118 -342.45 605.801 -342.45 C 605.284 -342.45 604.884 -342.53 604.599 -342.69 C 604.314 -342.86 604.114 -343.07 603.998 -343.34 C 603.882 -343.61 603.824 -344.17 603.824 -345.02 L 603.824 -349.85 L 602.779 -349.85 L 602.779 -350.96 L 603.824 -350.96 L 603.824 -353.04 L 605.239 -353.89 L 605.239 -350.96 L 606.671 -350.96 L 606.671 -349.85 L 605.239 -349.85 L 605.239 -344.94 C 605.239 -344.54 605.264 -344.27 605.315 -344.16 C 605.365 -344.04 605.447 -343.95 605.56 -343.88 C 605.673 -343.81 605.835 -343.78 606.046 -343.78 C 606.205 -343.78 606.413 -343.8 606.671 -343.83 Z M 612.398 -352.52 L 612.398 -354.16 L 613.822 -354.16 L 613.822 -352.52 L 612.398 -352.52 Z M 612.398 -342.56 L 612.398 -350.96 L 613.822 -350.96 L 613.822 -342.56 L 612.398 -342.56 Z M 615.351 -345.07 L 616.759 -345.29 C 616.838 -344.73 617.059 -344.29 617.42 -343.99 C 617.781 -343.69 618.286 -343.54 618.935 -343.54 C 619.589 -343.54 620.074 -343.67 620.39 -343.94 C 620.707 -344.21 620.865 -344.52 620.865 -344.88 C 620.865 -345.2 620.725 -345.45 620.446 -345.64 C 620.251 -345.76 619.765 -345.93 618.99 -346.12 C 617.946 -346.38 617.222 -346.61 616.819 -346.8 C 616.416 -347 616.11 -347.26 615.901 -347.6 C 615.693 -347.94 615.589 -348.32 615.589 -348.73 C 615.589 -349.11 615.675 -349.45 615.846 -349.77 C 616.017 -350.09 616.251 -350.35 616.546 -350.56 C 616.767 -350.73 617.069 -350.87 617.452 -350.98 C 617.834 -351.09 618.244 -351.15 618.682 -351.15 C 619.341 -351.15 619.919 -351.06 620.418 -350.87 C 620.916 -350.68 621.284 -350.42 621.521 -350.09 C 621.758 -349.77 621.922 -349.34 622.012 -348.79 L 620.62 -348.6 C 620.557 -349.04 620.373 -349.37 620.07 -349.62 C 619.767 -349.86 619.338 -349.98 618.784 -349.98 C 618.131 -349.98 617.664 -349.87 617.384 -349.65 C 617.105 -349.44 616.965 -349.19 616.965 -348.9 C 616.965 -348.71 617.023 -348.55 617.139 -348.4 C 617.255 -348.25 617.437 -348.12 617.685 -348.02 C 617.827 -347.96 618.246 -347.84 618.943 -347.65 C 619.95 -347.38 620.652 -347.17 621.051 -346.99 C 621.449 -346.82 621.761 -346.57 621.988 -346.25 C 622.215 -345.92 622.328 -345.51 622.328 -345.03 C 622.328 -344.55 622.19 -344.11 621.913 -343.69 C 621.636 -343.27 621.237 -342.94 620.715 -342.71 C 620.192 -342.49 619.602 -342.37 618.943 -342.37 C 617.851 -342.37 617.019 -342.6 616.447 -343.05 C 615.875 -343.5 615.51 -344.18 615.351 -345.07 Z M 628.446 -342.56 L 628.446 -354.16 L 630.02 -354.16 L 636.11 -345.05 L 636.11 -354.16 L 637.582 -354.16 L 637.582 -342.56 L 636.008 -342.56 L 629.917 -351.67 L 629.917 -342.56 L 628.446 -342.56 Z M 639.225 -346.76 C 639.225 -348.32 639.657 -349.47 640.522 -350.22 C 641.245 -350.84 642.125 -351.15 643.164 -351.15 C 644.319 -351.15 645.263 -350.77 645.996 -350.01 C 646.729 -349.26 647.096 -348.21 647.096 -346.88 C 647.096 -345.8 646.934 -344.95 646.609 -344.33 C 646.285 -343.71 645.813 -343.23 645.193 -342.88 C 644.574 -342.54 643.897 -342.37 643.164 -342.37 C 641.988 -342.37 641.038 -342.75 640.313 -343.5 C 639.588 -344.25 639.225 -345.34 639.225 -346.76 Z M 640.689 -346.76 C 640.689 -345.69 640.924 -344.88 641.393 -344.34 C 641.862 -343.81 642.453 -343.54 643.164 -343.54 C 643.871 -343.54 644.459 -343.81 644.928 -344.35 C 645.397 -344.89 645.632 -345.71 645.632 -346.81 C 645.632 -347.85 645.396 -348.63 644.924 -349.17 C 644.452 -349.7 643.865 -349.97 643.164 -349.97 C 642.453 -349.97 641.862 -349.71 641.393 -349.17 C 640.924 -348.64 640.689 -347.84 640.689 -346.76 Z M 650.916 -342.56 L 647.72 -350.96 L 649.223 -350.96 L 651.027 -345.93 C 651.222 -345.39 651.402 -344.82 651.565 -344.24 C 651.692 -344.68 651.868 -345.21 652.095 -345.83 L 653.962 -350.96 L 655.425 -350.96 L 652.245 -342.56 L 650.916 -342.56 Z M 662.009 -343.6 C 661.482 -343.15 660.974 -342.83 660.486 -342.65 C 659.999 -342.46 659.475 -342.37 658.916 -342.37 C 657.993 -342.37 657.284 -342.6 656.788 -343.05 C 656.293 -343.5 656.045 -344.07 656.045 -344.77 C 656.045 -345.19 656.139 -345.56 656.326 -345.9 C 656.513 -346.24 656.758 -346.51 657.061 -346.72 C 657.364 -346.93 657.706 -347.08 658.086 -347.19 C 658.365 -347.26 658.787 -347.33 659.351 -347.4 C 660.501 -347.54 661.347 -347.7 661.89 -347.89 C 661.895 -348.09 661.898 -348.21 661.898 -348.26 C 661.898 -348.84 661.764 -349.25 661.495 -349.49 C 661.131 -349.81 660.59 -349.97 659.873 -349.97 C 659.204 -349.97 658.709 -349.86 658.39 -349.62 C 658.071 -349.38 657.835 -348.97 657.682 -348.37 L 656.29 -348.56 C 656.417 -349.16 656.625 -349.64 656.915 -350.01 C 657.205 -350.37 657.624 -350.66 658.173 -350.85 C 658.721 -351.05 659.356 -351.15 660.079 -351.15 C 660.796 -351.15 661.379 -351.07 661.827 -350.9 C 662.276 -350.73 662.605 -350.52 662.816 -350.26 C 663.027 -350 663.174 -349.68 663.259 -349.29 C 663.306 -349.05 663.33 -348.61 663.33 -347.98 L 663.33 -346.08 C 663.33 -344.76 663.36 -343.92 663.421 -343.57 C 663.482 -343.22 663.602 -342.88 663.781 -342.56 L 662.294 -342.56 C 662.146 -342.86 662.051 -343.2 662.009 -343.6 Z M 661.89 -346.78 C 661.373 -346.56 660.598 -346.39 659.565 -346.24 C 658.98 -346.15 658.566 -346.06 658.323 -345.95 C 658.08 -345.85 657.893 -345.69 657.761 -345.49 C 657.63 -345.29 657.564 -345.06 657.564 -344.81 C 657.564 -344.44 657.708 -344.12 657.995 -343.87 C 658.282 -343.61 658.703 -343.49 659.256 -343.49 C 659.805 -343.49 660.293 -343.61 660.72 -343.85 C 661.147 -344.08 661.46 -344.41 661.661 -344.83 C 661.814 -345.15 661.89 -345.63 661.89 -346.25 L 661.89 -346.78 Z M 668.021 -345.42 C 668.016 -345.61 668.013 -345.75 668.013 -345.84 C 668.013 -346.4 668.092 -346.88 668.25 -347.29 C 668.366 -347.6 668.553 -347.9 668.812 -348.22 C 669.001 -348.44 669.343 -348.77 669.836 -349.21 C 670.329 -349.64 670.65 -349.99 670.797 -350.25 C 670.944 -350.51 671.018 -350.79 671.018 -351.1 C 671.018 -351.65 670.802 -352.13 670.37 -352.55 C 669.937 -352.97 669.407 -353.18 668.78 -353.18 C 668.173 -353.18 667.667 -352.99 667.261 -352.61 C 666.855 -352.23 666.589 -351.64 666.462 -350.83 L 664.999 -351.01 C 665.131 -352.09 665.522 -352.92 666.173 -353.49 C 666.824 -354.07 667.685 -354.35 668.756 -354.35 C 669.89 -354.35 670.794 -354.05 671.469 -353.43 C 672.144 -352.81 672.482 -352.06 672.482 -351.19 C 672.482 -350.68 672.363 -350.22 672.126 -349.79 C 671.889 -349.36 671.425 -348.84 670.734 -348.23 C 670.27 -347.82 669.967 -347.52 669.824 -347.32 C 669.681 -347.13 669.576 -346.9 669.508 -346.65 C 669.439 -346.4 669.4 -345.99 669.389 -345.42 L 668.021 -345.42 Z M 667.934 -342.56 L 667.934 -344.18 L 669.555 -344.18 L 669.555 -342.56 L 667.934 -342.56 Z" style="fill: rgb(255, 255, 255); text-wrap-mode: nowrap;"/>
    <path d="M 570.285 -236.1 L 570.285 -247.7 L 571.819 -247.7 L 571.819 -236.1 L 570.285 -236.1 Z M 576.481 -237.37 L 576.687 -236.12 C 576.286 -236.03 575.928 -235.99 575.611 -235.99 C 575.094 -235.99 574.694 -236.07 574.409 -236.23 C 574.124 -236.4 573.924 -236.61 573.808 -236.88 C 573.692 -237.15 573.634 -237.71 573.634 -238.56 L 573.634 -243.39 L 572.59 -243.39 L 572.59 -244.5 L 573.634 -244.5 L 573.634 -246.58 L 575.05 -247.44 L 575.05 -244.5 L 576.481 -244.5 L 576.481 -243.39 L 575.05 -243.39 L 575.05 -238.48 C 575.05 -238.07 575.075 -237.81 575.125 -237.7 C 575.175 -237.58 575.257 -237.49 575.37 -237.42 C 575.483 -237.35 575.646 -237.32 575.857 -237.32 C 576.015 -237.32 576.223 -237.34 576.481 -237.37 Z M 577.794 -243.59 L 577.431 -245.76 L 577.431 -247.7 L 579.052 -247.7 L 579.052 -245.76 L 578.672 -243.59 L 577.794 -243.59 Z M 579.865 -238.61 L 581.273 -238.83 C 581.352 -238.26 581.573 -237.83 581.934 -237.53 C 582.295 -237.23 582.8 -237.08 583.449 -237.08 C 584.102 -237.08 584.587 -237.21 584.904 -237.48 C 585.221 -237.75 585.379 -238.06 585.379 -238.42 C 585.379 -238.74 585.239 -238.99 584.959 -239.18 C 584.764 -239.3 584.279 -239.47 583.504 -239.66 C 582.46 -239.92 581.736 -240.15 581.333 -240.34 C 580.929 -240.54 580.623 -240.8 580.415 -241.14 C 580.207 -241.48 580.103 -241.86 580.103 -242.27 C 580.103 -242.65 580.189 -242.99 580.36 -243.31 C 580.531 -243.63 580.765 -243.89 581.06 -244.1 C 581.281 -244.27 581.583 -244.41 581.965 -244.52 C 582.348 -244.63 582.758 -244.69 583.195 -244.69 C 583.854 -244.69 584.433 -244.59 584.932 -244.41 C 585.43 -244.22 585.798 -243.96 586.035 -243.63 C 586.272 -243.31 586.436 -242.88 586.526 -242.33 L 585.133 -242.14 C 585.07 -242.58 584.887 -242.91 584.584 -243.16 C 584.281 -243.4 583.852 -243.52 583.298 -243.52 C 582.644 -243.52 582.177 -243.41 581.898 -243.19 C 581.619 -242.98 581.479 -242.73 581.479 -242.44 C 581.479 -242.25 581.537 -242.09 581.653 -241.94 C 581.769 -241.78 581.951 -241.66 582.199 -241.56 C 582.341 -241.5 582.76 -241.38 583.456 -241.19 C 584.463 -240.93 585.166 -240.71 585.565 -240.53 C 585.963 -240.36 586.275 -240.11 586.502 -239.79 C 586.729 -239.46 586.842 -239.05 586.842 -238.57 C 586.842 -238.09 586.704 -237.65 586.427 -237.23 C 586.15 -236.81 585.75 -236.48 585.228 -236.25 C 584.706 -236.03 584.115 -235.91 583.456 -235.91 C 582.365 -235.91 581.533 -236.14 580.961 -236.59 C 580.389 -237.04 580.024 -237.72 579.865 -238.61 Z M 594.344 -236.1 L 591.773 -244.5 L 593.244 -244.5 L 594.581 -239.65 L 595.079 -237.85 C 595.1 -237.94 595.245 -238.51 595.514 -239.58 L 596.851 -244.5 L 598.315 -244.5 L 599.572 -239.63 L 599.992 -238.02 L 600.474 -239.64 L 601.914 -244.5 L 603.298 -244.5 L 600.672 -236.1 L 599.193 -236.1 L 597.856 -241.13 L 597.531 -242.56 L 595.831 -236.1 L 594.344 -236.1 Z M 604.269 -236.1 L 604.269 -247.7 L 605.693 -247.7 L 605.693 -243.54 C 606.357 -244.31 607.195 -244.69 608.208 -244.69 C 608.831 -244.69 609.371 -244.57 609.83 -244.32 C 610.289 -244.08 610.617 -243.74 610.815 -243.31 C 611.012 -242.87 611.111 -242.25 611.111 -241.42 L 611.111 -236.1 L 609.687 -236.1 L 609.687 -241.42 C 609.687 -242.13 609.533 -242.65 609.225 -242.98 C 608.916 -243.3 608.48 -243.46 607.916 -243.46 C 607.494 -243.46 607.097 -243.35 606.725 -243.14 C 606.353 -242.92 606.088 -242.62 605.93 -242.25 C 605.772 -241.87 605.693 -241.35 605.693 -240.7 L 605.693 -236.1 L 604.269 -236.1 Z M 618.847 -238.81 L 620.318 -238.62 C 620.086 -237.76 619.656 -237.1 619.029 -236.62 C 618.402 -236.15 617.6 -235.91 616.624 -235.91 C 615.395 -235.91 614.421 -236.29 613.702 -237.04 C 612.982 -237.8 612.622 -238.86 612.622 -240.23 C 612.622 -241.64 612.986 -242.74 613.713 -243.52 C 614.441 -244.3 615.385 -244.69 616.545 -244.69 C 617.668 -244.69 618.586 -244.31 619.298 -243.54 C 620.01 -242.78 620.366 -241.7 620.366 -240.32 C 620.366 -240.23 620.363 -240.1 620.358 -239.94 L 614.093 -239.94 C 614.146 -239.01 614.407 -238.31 614.876 -237.82 C 615.345 -237.33 615.931 -237.08 616.632 -237.08 C 617.154 -237.08 617.6 -237.22 617.969 -237.49 C 618.338 -237.77 618.631 -238.2 618.847 -238.81 Z M 614.172 -241.11 L 618.863 -241.11 C 618.8 -241.81 618.62 -242.34 618.325 -242.7 C 617.872 -243.25 617.284 -243.52 616.561 -243.52 C 615.907 -243.52 615.357 -243.3 614.912 -242.86 C 614.466 -242.43 614.219 -241.84 614.172 -241.11 Z M 621.908 -236.1 L 621.908 -244.5 L 623.19 -244.5 L 623.19 -243.23 C 623.517 -243.82 623.818 -244.22 624.095 -244.41 C 624.372 -244.59 624.677 -244.69 625.009 -244.69 C 625.489 -244.69 625.977 -244.54 626.472 -244.23 L 625.982 -242.91 C 625.634 -243.12 625.286 -243.22 624.938 -243.22 C 624.627 -243.22 624.347 -243.13 624.099 -242.94 C 623.851 -242.75 623.674 -242.49 623.569 -242.16 C 623.411 -241.65 623.332 -241.1 623.332 -240.5 L 623.332 -236.1 L 621.908 -236.1 Z M 632.971 -238.81 L 634.442 -238.62 C 634.21 -237.76 633.78 -237.1 633.153 -236.62 C 632.526 -236.15 631.724 -235.91 630.748 -235.91 C 629.519 -235.91 628.545 -236.29 627.826 -237.04 C 627.106 -237.8 626.746 -238.86 626.746 -240.23 C 626.746 -241.64 627.11 -242.74 627.837 -243.52 C 628.565 -244.3 629.509 -244.69 630.669 -244.69 C 631.792 -244.69 632.71 -244.31 633.422 -243.54 C 634.134 -242.78 634.49 -241.7 634.49 -240.32 C 634.49 -240.23 634.487 -240.1 634.482 -239.94 L 628.217 -239.94 C 628.27 -239.01 628.531 -238.31 629 -237.82 C 629.469 -237.33 630.055 -237.08 630.756 -237.08 C 631.278 -237.08 631.724 -237.22 632.093 -237.49 C 632.462 -237.77 632.755 -238.2 632.971 -238.81 Z M 628.296 -241.11 L 632.987 -241.11 C 632.924 -241.81 632.744 -242.34 632.449 -242.7 C 631.996 -243.25 631.408 -243.52 630.685 -243.52 C 630.031 -243.52 629.481 -243.3 629.036 -242.86 C 628.59 -242.43 628.343 -241.84 628.296 -241.11 Z M 645.943 -239.18 L 647.343 -239 C 647.19 -238.03 646.799 -237.28 646.169 -236.73 C 645.539 -236.18 644.765 -235.91 643.847 -235.91 C 642.698 -235.91 641.774 -236.29 641.075 -237.04 C 640.376 -237.79 640.027 -238.87 640.027 -240.27 C 640.027 -241.18 640.177 -241.97 640.477 -242.65 C 640.778 -243.33 641.235 -243.84 641.85 -244.18 C 642.464 -244.52 643.132 -244.69 643.855 -244.69 C 644.768 -244.69 645.514 -244.46 646.094 -244 C 646.674 -243.54 647.046 -242.88 647.209 -242.03 L 645.825 -241.82 C 645.693 -242.38 645.46 -242.81 645.125 -243.09 C 644.79 -243.38 644.385 -243.52 643.91 -243.52 C 643.193 -243.52 642.611 -243.26 642.162 -242.75 C 641.714 -242.23 641.49 -241.42 641.49 -240.31 C 641.49 -239.18 641.706 -238.36 642.139 -237.85 C 642.571 -237.34 643.135 -237.08 643.831 -237.08 C 644.39 -237.08 644.857 -237.25 645.231 -237.59 C 645.606 -237.94 645.843 -238.47 645.943 -239.18 Z M 648.39 -236.1 L 648.39 -244.5 L 649.672 -244.5 L 649.672 -243.23 C 649.999 -243.82 650.301 -244.22 650.578 -244.41 C 650.855 -244.59 651.159 -244.69 651.491 -244.69 C 651.971 -244.69 652.459 -244.54 652.955 -244.23 L 652.464 -242.91 C 652.116 -243.12 651.768 -243.22 651.42 -243.22 C 651.109 -243.22 650.829 -243.13 650.582 -242.94 C 650.334 -242.75 650.157 -242.49 650.052 -242.16 C 649.893 -241.65 649.814 -241.1 649.814 -240.5 L 649.814 -236.1 L 648.39 -236.1 Z M 659.454 -238.81 L 660.925 -238.62 C 660.693 -237.76 660.263 -237.1 659.635 -236.62 C 659.008 -236.15 658.206 -235.91 657.231 -235.91 C 656.002 -235.91 655.028 -236.29 654.308 -237.04 C 653.588 -237.8 653.228 -238.86 653.228 -240.23 C 653.228 -241.64 653.592 -242.74 654.32 -243.52 C 655.047 -244.3 655.991 -244.69 657.152 -244.69 C 658.275 -244.69 659.193 -244.31 659.904 -243.54 C 660.616 -242.78 660.972 -241.7 660.972 -240.32 C 660.972 -240.23 660.969 -240.1 660.964 -239.94 L 654.699 -239.94 C 654.752 -239.01 655.014 -238.31 655.483 -237.82 C 655.952 -237.33 656.538 -237.08 657.239 -237.08 C 657.761 -237.08 658.206 -237.22 658.575 -237.49 C 658.944 -237.77 659.237 -238.2 659.454 -238.81 Z M 654.779 -241.11 L 659.469 -241.11 C 659.406 -241.81 659.226 -242.34 658.931 -242.7 C 658.478 -243.25 657.89 -243.52 657.167 -243.52 C 656.514 -243.52 655.964 -243.3 655.518 -242.86 C 655.073 -242.43 654.826 -241.84 654.779 -241.11 Z M 668.012 -237.14 C 667.485 -236.69 666.977 -236.37 666.489 -236.19 C 666.002 -236 665.478 -235.91 664.919 -235.91 C 663.996 -235.91 663.287 -236.13 662.791 -236.59 C 662.296 -237.04 662.048 -237.61 662.048 -238.31 C 662.048 -238.73 662.142 -239.1 662.329 -239.44 C 662.516 -239.78 662.761 -240.06 663.064 -240.26 C 663.367 -240.47 663.709 -240.62 664.089 -240.73 C 664.368 -240.8 664.79 -240.87 665.354 -240.94 C 666.504 -241.08 667.35 -241.24 667.893 -241.43 C 667.898 -241.63 667.901 -241.75 667.901 -241.8 C 667.901 -242.38 667.767 -242.79 667.498 -243.03 C 667.134 -243.35 666.593 -243.51 665.876 -243.51 C 665.207 -243.51 664.712 -243.4 664.393 -243.16 C 664.074 -242.93 663.838 -242.51 663.685 -241.91 L 662.293 -242.1 C 662.42 -242.7 662.628 -243.18 662.918 -243.55 C 663.208 -243.91 663.627 -244.2 664.176 -244.39 C 664.724 -244.59 665.359 -244.69 666.082 -244.69 C 666.799 -244.69 667.382 -244.61 667.83 -244.44 C 668.278 -244.27 668.608 -244.06 668.819 -243.8 C 669.03 -243.54 669.177 -243.22 669.262 -242.83 C 669.309 -242.59 669.333 -242.15 669.333 -241.52 L 669.333 -239.62 C 669.333 -238.3 669.363 -237.46 669.424 -237.11 C 669.485 -236.76 669.605 -236.42 669.784 -236.1 L 668.297 -236.1 C 668.149 -236.4 668.054 -236.74 668.012 -237.14 Z M 667.893 -240.32 C 667.376 -240.1 666.601 -239.93 665.568 -239.78 C 664.983 -239.69 664.569 -239.6 664.326 -239.49 C 664.083 -239.39 663.896 -239.23 663.764 -239.03 C 663.633 -238.83 663.567 -238.6 663.567 -238.35 C 663.567 -237.97 663.711 -237.66 663.998 -237.41 C 664.285 -237.15 664.706 -237.03 665.259 -237.03 C 665.808 -237.03 666.296 -237.15 666.723 -237.38 C 667.15 -237.63 667.463 -237.95 667.664 -238.37 C 667.817 -238.69 667.893 -239.17 667.893 -239.79 L 667.893 -240.32 Z M 674.466 -237.37 L 674.672 -236.12 C 674.271 -236.03 673.913 -235.99 673.596 -235.99 C 673.079 -235.99 672.679 -236.07 672.394 -236.23 C 672.109 -236.4 671.909 -236.61 671.793 -236.88 C 671.677 -237.15 671.619 -237.71 671.619 -238.56 L 671.619 -243.39 L 670.575 -243.39 L 670.575 -244.5 L 671.619 -244.5 L 671.619 -246.58 L 673.035 -247.44 L 673.035 -244.5 L 674.466 -244.5 L 674.466 -243.39 L 673.035 -243.39 L 673.035 -238.48 C 673.035 -238.07 673.06 -237.81 673.11 -237.7 C 673.16 -237.58 673.242 -237.49 673.355 -237.42 C 673.468 -237.35 673.631 -237.32 673.842 -237.32 C 674 -237.32 674.208 -237.34 674.466 -237.37 Z M 675.779 -246.06 L 675.779 -247.7 L 677.203 -247.7 L 677.203 -246.06 L 675.779 -246.06 Z M 675.779 -236.1 L 675.779 -244.5 L 677.203 -244.5 L 677.203 -236.1 L 675.779 -236.1 Z M 681.636 -236.1 L 678.44 -244.5 L 679.943 -244.5 L 681.747 -239.47 C 681.942 -238.93 682.121 -238.36 682.285 -237.78 C 682.411 -238.22 682.588 -238.75 682.815 -239.38 L 684.681 -244.5 L 686.145 -244.5 L 682.965 -236.1 L 681.636 -236.1 Z M 687.255 -246.06 L 687.255 -247.7 L 688.679 -247.7 L 688.679 -246.06 L 687.255 -246.06 Z M 687.255 -236.1 L 687.255 -244.5 L 688.679 -244.5 L 688.679 -236.1 L 687.255 -236.1 Z M 693.887 -237.37 L 694.093 -236.12 C 693.692 -236.03 693.333 -235.99 693.017 -235.99 C 692.5 -235.99 692.099 -236.07 691.814 -236.23 C 691.529 -236.4 691.329 -236.61 691.213 -236.88 C 691.097 -237.15 691.039 -237.71 691.039 -238.56 L 691.039 -243.39 L 689.995 -243.39 L 689.995 -244.5 L 691.039 -244.5 L 691.039 -246.58 L 692.455 -247.44 L 692.455 -244.5 L 693.887 -244.5 L 693.887 -243.39 L 692.455 -243.39 L 692.455 -238.48 C 692.455 -238.07 692.48 -237.81 692.53 -237.7 C 692.58 -237.58 692.662 -237.49 692.776 -237.42 C 692.889 -237.35 693.051 -237.32 693.262 -237.32 C 693.42 -237.32 693.628 -237.34 693.887 -237.37 Z M 695.129 -232.87 L 694.97 -234.2 C 695.281 -234.12 695.553 -234.07 695.785 -234.07 C 696.102 -234.07 696.355 -234.13 696.545 -234.23 C 696.734 -234.34 696.89 -234.49 697.011 -234.68 C 697.101 -234.82 697.246 -235.17 697.446 -235.74 C 697.473 -235.81 697.515 -235.93 697.573 -236.08 L 694.385 -244.5 L 695.92 -244.5 L 697.668 -239.64 C 697.895 -239.02 698.098 -238.37 698.277 -237.69 C 698.44 -238.34 698.635 -238.98 698.862 -239.6 L 700.658 -244.5 L 702.082 -244.5 L 698.886 -235.96 C 698.543 -235.03 698.277 -234.4 698.087 -234.05 C 697.834 -233.58 697.544 -233.24 697.217 -233.02 C 696.89 -232.8 696.5 -232.69 696.046 -232.69 C 695.772 -232.69 695.466 -232.75 695.129 -232.87 Z M 707.535 -236.1 L 707.535 -244.5 L 708.816 -244.5 L 708.816 -243.23 C 709.143 -243.82 709.445 -244.22 709.722 -244.41 C 709.999 -244.59 710.303 -244.69 710.635 -244.69 C 711.115 -244.69 711.603 -244.54 712.099 -244.23 L 711.608 -242.91 C 711.26 -243.12 710.912 -243.22 710.564 -243.22 C 710.253 -243.22 709.973 -243.13 709.726 -242.94 C 709.478 -242.75 709.301 -242.49 709.196 -242.16 C 709.037 -241.65 708.958 -241.1 708.958 -240.5 L 708.958 -236.1 L 707.535 -236.1 Z M 718.598 -238.81 L 720.069 -238.62 C 719.837 -237.76 719.407 -237.1 718.779 -236.62 C 718.152 -236.15 717.35 -235.91 716.375 -235.91 C 715.146 -235.91 714.172 -236.29 713.452 -237.04 C 712.732 -237.8 712.372 -238.86 712.372 -240.23 C 712.372 -241.64 712.736 -242.74 713.464 -243.52 C 714.191 -244.3 715.135 -244.69 716.296 -244.69 C 717.419 -244.69 718.337 -244.31 719.048 -243.54 C 719.76 -242.78 720.116 -241.7 720.116 -240.32 C 720.116 -240.23 720.113 -240.1 720.108 -239.94 L 713.844 -239.94 C 713.897 -239.01 714.158 -238.31 714.627 -237.82 C 715.096 -237.33 715.682 -237.08 716.383 -237.08 C 716.905 -237.08 717.351 -237.22 717.72 -237.49 C 718.089 -237.77 718.381 -238.2 718.598 -238.81 Z M 713.923 -241.11 L 718.613 -241.11 C 718.55 -241.81 718.37 -242.34 718.075 -242.7 C 717.622 -243.25 717.034 -243.52 716.312 -243.52 C 715.658 -243.52 715.108 -243.3 714.662 -242.86 C 714.217 -242.43 713.97 -241.84 713.923 -241.11 Z M 721.105 -238.61 L 722.513 -238.83 C 722.592 -238.26 722.812 -237.83 723.173 -237.53 C 723.534 -237.23 724.039 -237.08 724.688 -237.08 C 725.342 -237.08 725.827 -237.21 726.144 -237.48 C 726.46 -237.75 726.618 -238.06 726.618 -238.42 C 726.618 -238.74 726.478 -238.99 726.199 -239.18 C 726.004 -239.3 725.518 -239.47 724.743 -239.66 C 723.699 -239.92 722.975 -240.15 722.572 -240.34 C 722.169 -240.54 721.863 -240.8 721.655 -241.14 C 721.446 -241.48 721.342 -241.86 721.342 -242.27 C 721.342 -242.65 721.428 -242.99 721.599 -243.31 C 721.77 -243.63 722.004 -243.89 722.299 -244.1 C 722.52 -244.27 722.822 -244.41 723.205 -244.52 C 723.587 -244.63 723.997 -244.69 724.435 -244.69 C 725.094 -244.69 725.673 -244.59 726.171 -244.41 C 726.67 -244.22 727.038 -243.96 727.275 -243.63 C 727.512 -243.31 727.676 -242.88 727.765 -242.33 L 726.373 -242.14 C 726.31 -242.58 726.126 -242.91 725.823 -243.16 C 725.52 -243.4 725.091 -243.52 724.538 -243.52 C 723.884 -243.52 723.417 -243.41 723.138 -243.19 C 722.858 -242.98 722.718 -242.73 722.718 -242.44 C 722.718 -242.25 722.776 -242.09 722.892 -241.94 C 723.009 -241.78 723.191 -241.66 723.438 -241.56 C 723.581 -241.5 724 -241.38 724.696 -241.19 C 725.703 -240.93 726.406 -240.71 726.804 -240.53 C 727.202 -240.36 727.514 -240.11 727.741 -239.79 C 727.968 -239.46 728.082 -239.05 728.082 -238.57 C 728.082 -238.09 727.943 -237.65 727.666 -237.23 C 727.389 -236.81 726.99 -236.48 726.468 -236.25 C 725.946 -236.03 725.355 -235.91 724.696 -235.91 C 723.605 -235.91 722.773 -236.14 722.2 -236.59 C 721.628 -237.04 721.263 -237.72 721.105 -238.61 Z M 729.627 -246.06 L 729.627 -247.7 L 731.051 -247.7 L 731.051 -246.06 L 729.627 -246.06 Z M 729.627 -236.1 L 729.627 -244.5 L 731.051 -244.5 L 731.051 -236.1 L 729.627 -236.1 Z M 738.6 -236.1 L 738.6 -237.16 C 738.067 -236.33 737.284 -235.91 736.251 -235.91 C 735.581 -235.91 734.965 -236.09 734.404 -236.46 C 733.842 -236.83 733.407 -237.35 733.099 -238.01 C 732.79 -238.67 732.636 -239.43 732.636 -240.29 C 732.636 -241.13 732.776 -241.89 733.055 -242.57 C 733.334 -243.26 733.754 -243.78 734.313 -244.15 C 734.872 -244.51 735.497 -244.69 736.188 -244.69 C 736.694 -244.69 737.145 -244.58 737.54 -244.37 C 737.935 -244.16 738.257 -243.88 738.505 -243.54 L 738.505 -247.7 L 739.921 -247.7 L 739.921 -236.1 L 738.6 -236.1 Z M 734.099 -240.29 C 734.099 -239.22 734.326 -238.41 734.78 -237.88 C 735.233 -237.35 735.768 -237.08 736.385 -237.08 C 737.008 -237.08 737.536 -237.34 737.971 -237.84 C 738.406 -238.35 738.624 -239.13 738.624 -240.17 C 738.624 -241.32 738.402 -242.17 737.959 -242.71 C 737.516 -243.24 736.971 -243.51 736.322 -243.51 C 735.689 -243.51 735.161 -243.25 734.736 -242.74 C 734.311 -242.22 734.099 -241.41 734.099 -240.29 Z M 747.728 -238.81 L 749.2 -238.62 C 748.967 -237.76 748.537 -237.1 747.91 -236.62 C 747.283 -236.15 746.481 -235.91 745.505 -235.91 C 744.276 -235.91 743.302 -236.29 742.583 -237.04 C 741.863 -237.8 741.503 -238.86 741.503 -240.23 C 741.503 -241.64 741.867 -242.74 742.595 -243.52 C 743.322 -244.3 744.266 -244.69 745.426 -244.69 C 746.549 -244.69 747.467 -244.31 748.179 -243.54 C 748.891 -242.78 749.247 -241.7 749.247 -240.32 C 749.247 -240.23 749.244 -240.1 749.239 -239.94 L 742.974 -239.94 C 743.027 -239.01 743.288 -238.31 743.757 -237.82 C 744.226 -237.33 744.812 -237.08 745.513 -237.08 C 746.035 -237.08 746.481 -237.22 746.85 -237.49 C 747.219 -237.77 747.512 -238.2 747.728 -238.81 Z M 743.053 -241.11 L 747.744 -241.11 C 747.681 -241.81 747.501 -242.34 747.206 -242.7 C 746.753 -243.25 746.165 -243.52 745.442 -243.52 C 744.788 -243.52 744.238 -243.3 743.793 -242.86 C 743.348 -242.43 743.101 -241.84 743.053 -241.11 Z M 750.235 -238.61 L 751.643 -238.83 C 751.722 -238.26 751.943 -237.83 752.304 -237.53 C 752.665 -237.23 753.17 -237.08 753.819 -237.08 C 754.473 -237.08 754.958 -237.21 755.274 -237.48 C 755.591 -237.75 755.749 -238.06 755.749 -238.42 C 755.749 -238.74 755.609 -238.99 755.33 -239.18 C 755.135 -239.3 754.649 -239.47 753.874 -239.66 C 752.83 -239.92 752.106 -240.15 751.703 -240.34 C 751.3 -240.54 750.994 -240.8 750.785 -241.14 C 750.577 -241.48 750.473 -241.86 750.473 -242.27 C 750.473 -242.65 750.559 -242.99 750.73 -243.31 C 750.901 -243.63 751.135 -243.89 751.43 -244.1 C 751.651 -244.27 751.953 -244.41 752.336 -244.52 C 752.718 -244.63 753.128 -244.69 753.566 -244.69 C 754.225 -244.69 754.803 -244.59 755.302 -244.41 C 755.8 -244.22 756.168 -243.96 756.405 -243.63 C 756.642 -243.31 756.806 -242.88 756.896 -242.33 L 755.504 -242.14 C 755.441 -242.58 755.257 -242.91 754.954 -243.16 C 754.651 -243.4 754.222 -243.52 753.668 -243.52 C 753.015 -243.52 752.548 -243.41 752.268 -243.19 C 751.989 -242.98 751.849 -242.73 751.849 -242.44 C 751.849 -242.25 751.907 -242.09 752.023 -241.94 C 752.139 -241.78 752.321 -241.66 752.569 -241.56 C 752.712 -241.5 753.131 -241.38 753.827 -241.19 C 754.834 -240.93 755.537 -240.71 755.935 -240.53 C 756.333 -240.36 756.645 -240.11 756.872 -239.79 C 757.099 -239.46 757.212 -239.05 757.212 -238.57 C 757.212 -238.09 757.074 -237.65 756.797 -237.23 C 756.52 -236.81 756.121 -236.48 755.599 -236.25 C 755.076 -236.03 754.486 -235.91 753.827 -235.91 C 752.735 -235.91 751.903 -236.14 751.331 -236.59 C 750.759 -237.04 750.394 -237.72 750.235 -238.61 Z" style="fill: rgb(255, 255, 255); text-wrap-mode: nowrap;"/>
    <g transform="matrix(4.05206, 0, 0, 4.05206, -461.908, -639.764)" style="">
      <g transform="matrix(0.505913, 0, 0, 0.505913, 515.767159, -123.168291)" style="" id="object-0">
        <g transform="matrix(0.346639, 0, 0, 0.346639, -320.224431, 280.046849)" style="">
          <circle style="stroke: rgb(0, 0, 0);fill: rgb(11, 3, 23);" transform="matrix(1, 0, 0, 1.000005, -1613.503566, -229.347202)" cx="987" cy="666.6" r="37.256"/>
          <g>
            <g style="clip-path: url(&quot;#clip-2&quot;);">
              <circle style="stroke: rgb(0, 0, 0); stroke-width: 0px; fill: rgb(104, 31, 209); filter: blur(20px);" transform="matrix(0.654155, 0, 0, 0.583226, -1382.20803, -9.42897)" cx="1223.4" cy="826.8" r="49.8"/>
              <circle style="stroke: rgb(0, 0, 0); stroke-width: 0px; fill: rgb(104, 31, 209); filter: blur(20px);" transform="matrix(0.654155, 0, 0, 0.583226, -1467.716454, -84.041437)" cx="1223.4" cy="826.8" r="49.8"/>
            </g>
            <g fill="#681fd1" fill-rule="nonzero" stroke="#000000" stroke-width="0" stroke-linecap="round" stroke-linejoin="round" stroke-miterlimit="10" stroke-dasharray="" stroke-dashoffset="0" font-family="none" font-weight="none" font-size="none" text-anchor="none" style="mix-blend-mode: normal;" transform="matrix(1.933508, 0, 0, 1.933508, -1911.903823, -298.9592)">
              <g data-paper-data="{&quot;layerid&quot;:&quot;stage&quot;,&quot;name&quot;:&quot;stage&quot;,&quot;stage&quot;:false,&quot;vgx&quot;:{&quot;signed&quot;:true,&quot;selected&quot;:false,&quot;unsigned&quot;:false,&quot;contained&quot;:false,&quot;visible&quot;:true,&quot;id&quot;:&quot;6xrlum198_1722098349692115&quot;,&quot;changeset&quot;:&quot;hwjhxziha_1722098349692116&quot;,&quot;staticid&quot;:&quot;ji4ant8z8_1722098349692117&quot;,&quot;name&quot;:&quot;stage&quot;,&quot;altname&quot;:&quot;&quot;,&quot;owner&quot;:null,&quot;layer&quot;:true,&quot;class&quot;:&quot;item&quot;,&quot;type&quot;:&quot;default&quot;,&quot;ui&quot;:false,&quot;actor&quot;:false,&quot;props&quot;:{},&quot;locked&quot;:false,&quot;strokeScaling&quot;:true,&quot;container&quot;:false,&quot;layerid&quot;:&quot;stage&quot;}}" id="group-1" transform="matrix(1, 0, 0, 1, -2.78767, 0)">
                <g id="group-2">
                  <path d="M676.45529,382.07613c0,0 -0.71782,7.15415 -8.5199,7.32851c-8.11291,-0.087 -9.04396,-8.40454 -9.04396,-8.40454c0,0 3.47614,-3.11454 8.61358,0.78401c4.91734,3.4283 8.95028,0.29202 8.95028,0.29202z" id="path-1"/>
                  <path d="M658.98129,379.36578c0,0 1.0322,-7.57438 8.83428,-7.77042c8.1129,0.09782 8.75661,8.54033 8.75661,8.54033c0,0 -4.16257,4.03758 -8.81435,0.56686c-3.87163,-3.91971 -8.77655,-1.33677 -8.77655,-1.33677z" id="path-1"/>
                </g>
                <g id="group-3">
                  <path d="M676.56974,381.06947c0.01896,-0.32756 0.02397,-0.9204 0.02397,-0.9204c0,0 1.87912,-2.07045 1.57688,-2.91403c-0.19127,-0.53385 -2.32949,-0.00312 -2.32949,-0.00312c0,0 -0.18106,-0.48317 -0.28446,-0.71072c-0.1034,-0.22754 -0.32178,-0.6234 -0.32178,-0.6234c0,0 3.31778,-0.8889 4.05032,0.62863c1.08081,2.23899 -2.82083,5.55019 -2.82083,5.55019c0,0 0.08643,-0.6796 0.10538,-1.00716z" id="path-1"/>
                  <path d="M677.48833,381.70025" id="path-1"/>
                </g>
                <g id="group-4">
                  <path d="M659.62764,380.49928" id="path-1"/>
                  <path d="M658.86672,380.06958c0.01497,-0.26623 0.1006,-0.69378 0.1006,-0.69378c0,0 -4.794,3.16053 -4.42104,4.87597c0.40254,1.85142 5.48212,0.21438 5.48212,0.21438l-0.55691,-1.25735c0,0 -3.28935,0.77692 -3.37636,0.55293c-0.13282,-0.34192 2.79251,-2.76458 2.79251,-2.76458c0,0 -0.0359,-0.66135 -0.02094,-0.92758z" id="path-1"/>
                  <path d="M659.25829,379.59713" id="path-1"/>
                </g>
                <g id="group-5">
                  <path d="M655.38884,375.07042c0,0 0.74279,2.10078 2.44449,1.99111c-1.54032,0.62772 -0.76991,2.96611 -0.7701,3.00195c-0.7509,-2.25545 -1.94562,-1.95681 -2.36585,-1.94629c1.37167,-0.78971 0.69146,-3.04678 0.69146,-3.04678z" id="path-1"/>
                  <path d="M655.20268,378.76308" id="path-1"/>
                  <path d="M656.88436,374.0867c0,0 0.37531,1.04436 1.23512,0.98984c-0.77827,0.31206 -0.38901,1.47454 -0.38911,1.49236c-0.3794,-1.12125 -0.98306,-0.97279 -1.19539,-0.96756c0.69306,-0.39259 0.34937,-1.51465 0.34937,-1.51465z" id="path-1"/>
                  <path d="M676.937,382.62996c0,0 0.43975,1.20487 1.44722,1.14197c-0.91192,0.36002 -0.45581,1.70117 -0.45592,1.72173c-0.44455,-1.29358 -1.15187,-1.12231 -1.40066,-1.11627c0.81207,-0.45293 0.40937,-1.74744 0.40937,-1.74744z" id="path-1"/>
                </g>
              </g>
            </g>
          </g>
        </g>
      </g>
    </g>
    <rect x="299.786" y="-225.2" width="1012.08" height="376.958" rx="1" ry="1" style="stroke: rgb(0, 0, 0); stroke-width: 0px; fill: rgb(8, 8, 15); filter: blur(20px); clip-path: url(&quot;#clip-0&quot;);"/>
  </g>
</svg>