<svg xmlns="http://www.w3.org/2000/svg" width="29" height="30" fill="none" viewBox="0 0 29 30">
  <g clip-path="url(#a)">
    <path stroke="#fff" stroke-miterlimit="10" stroke-width="1.45" d="M23.262 7.447a20.788 20.788 0 0 0-5.146-1.6.076.076 0 0 0-.083.04c-.236.428-.45.868-.64 1.319a19.197 19.197 0 0 0-5.782 0c-.193-.451-.41-.892-.65-1.32a.08.08 0 0 0-.084-.038 20.723 20.723 0 0 0-5.146 1.599.07.07 0 0 0-.035.029 21.397 21.397 0 0 0-3.735 14.413.09.09 0 0 0 .033.06 20.983 20.983 0 0 0 6.314 3.196.081.081 0 0 0 .09-.03c.487-.664.92-1.368 1.292-2.104a.081.081 0 0 0-.036-.107h-.008a13.928 13.928 0 0 1-1.973-.942.081.081 0 0 1-.038-.052.083.083 0 0 1 .01-.064.076.076 0 0 1 .02-.023c.133-.1.265-.202.392-.306a.076.076 0 0 1 .082-.012 14.935 14.935 0 0 0 12.708 0 .076.076 0 0 1 .082.01c.127.105.259.209.393.308a.08.08 0 0 1 .03.087.081.081 0 0 1-.037.049c-.63.368-1.29.683-1.974.94a.08.08 0 0 0-.047.103v.01c.378.731.81 1.434 1.29 2.103a.081.081 0 0 0 .09.03 20.878 20.878 0 0 0 6.324-3.197.08.08 0 0 0 .032-.058 21.251 21.251 0 0 0-3.74-14.413.056.056 0 0 0-.028-.03Z"/>
    <path fill="#fff" d="M23.262 7.447a20.788 20.788 0 0 0-5.146-1.6.076.076 0 0 0-.083.04c-.236.428-.45.868-.64 1.319a19.197 19.197 0 0 0-5.782 0c-.193-.451-.41-.892-.65-1.32a.08.08 0 0 0-.084-.038 20.723 20.723 0 0 0-5.146 1.599.07.07 0 0 0-.035.029 21.397 21.397 0 0 0-3.735 14.413.09.09 0 0 0 .033.06 20.983 20.983 0 0 0 6.314 3.196.081.081 0 0 0 .09-.03c.487-.664.92-1.368 1.292-2.104a.081.081 0 0 0-.036-.107h-.008a13.928 13.928 0 0 1-1.973-.942.081.081 0 0 1-.038-.052.083.083 0 0 1 .01-.064.076.076 0 0 1 .02-.023c.133-.1.265-.202.392-.306a.076.076 0 0 1 .082-.012 14.935 14.935 0 0 0 12.708 0 .076.076 0 0 1 .082.01c.127.105.259.209.393.308a.08.08 0 0 1 .03.087.081.081 0 0 1-.037.049c-.63.368-1.29.683-1.974.94a.08.08 0 0 0-.047.103v.01c.378.731.81 1.434 1.29 2.103a.081.081 0 0 0 .09.03 20.878 20.878 0 0 0 6.324-3.197.08.08 0 0 0 .032-.058 21.251 21.251 0 0 0-3.74-14.413.056.056 0 0 0-.028-.03Z" opacity=".17"/>
    <path fill="#fff" d="m18.71 19.771-.089-.01a3.303 3.303 0 0 1-2.22-1.24 3.307 3.307 0 0 1-.693-2.449 3.314 3.314 0 0 1 2.912-2.917l.088-.01.088.01a3.295 3.295 0 0 1 2.219 1.24 3.302 3.302 0 0 1 .693 2.45 3.318 3.318 0 0 1-2.91 2.916l-.089.01Zm0-5.102a1.804 1.804 0 0 0-1.504 1.578 1.813 1.813 0 0 0 1.502 2 1.803 1.803 0 0 0 1.503-1.579 1.813 1.813 0 0 0-1.502-2Zm-8.403 5.102-.087-.01a3.324 3.324 0 0 1-2.218-1.242 3.334 3.334 0 0 1 .253-4.415 3.304 3.304 0 0 1 1.965-.949l.087-.01.087.01a3.296 3.296 0 0 1 2.22 1.24 3.306 3.306 0 0 1 .694 2.45 3.32 3.32 0 0 1-2.913 2.916l-.088.01Zm0-5.102a1.802 1.802 0 0 0-1.503 1.578 1.816 1.816 0 0 0 1.503 2 1.803 1.803 0 0 0 1.503-1.579 1.802 1.802 0 0 0-.378-1.336 1.799 1.799 0 0 0-1.13-.663h.005Z"/>
  </g>
  <defs>
    <clipPath id="a">
      <path fill="#fff" d="M0 0h27v21H0z" transform="translate(1 5)"/>
    </clipPath>
  </defs>
</svg>
