<?xml version="1.0" encoding="UTF-8"?>
<svg id="uuid-b3b778da-e85e-42a7-9d7f-1a915594a9b5" data-name="Layer 2" xmlns="http://www.w3.org/2000/svg" width="45" height="45" viewBox="0 0 45 45">
  <g id="uuid-c18a1bd9-8c30-430a-84ec-d96df861424f" data-name="Layer 3">
    <g>
      <rect width="45" height="45" fill="none" stroke-width="0"/>
      <g>
        <path d="m37.67,10.51c-1.52.74-3,1.05-4.55,1.5-1.7-1.92-4.22-2.03-6.64-1.12-2.42.91-4.01,3.13-3.98,5.67v1.52c-4.92.13-9.31-2.12-12.14-6.07,0,0-6.34,11.28,6.07,16.69-2.84,1.89-5.67,3.17-9.1,3.03,5.02,2.74,10.49,3.68,15.22,2.3,5.43-1.58,9.9-5.65,11.61-11.75.51-1.85.76-3.77.75-5.69,0-.38,2.29-4.21,2.76-6.09h0Z" fill="rgba(255, 255, 255, .17)" stroke-width="0"/>
        <path d="m37.67,10.51c-1.52.74-3,1.05-4.55,1.5-1.7-1.92-4.22-2.03-6.64-1.12-2.42.91-4.01,3.13-3.98,5.67v1.52c-4.92.13-9.31-2.12-12.14-6.07,0,0-6.34,11.28,6.07,16.69-2.84,1.89-5.67,3.17-9.1,3.03,5.02,2.74,10.49,3.68,15.22,2.3,5.43-1.58,9.9-5.65,11.61-11.75.51-1.85.76-3.77.75-5.69,0-.38,2.29-4.21,2.76-6.09h0Z" fill="none" stroke="#fff" stroke-linecap="round" stroke-linejoin="round" stroke-width="3"/>
      </g>
    </g>
  </g>
</svg>