<svg width="128" height="128" viewBox="0 0 24 24" xmlns="http://www.w3.org/2000/svg">
  <defs>
    <linearGradient id="transcriptGrad" x1="0%" y1="0%" x2="100%" y2="100%">
      <stop offset="0%" stop-color="#818CF8"/>
      <stop offset="100%" stop-color="#312E81"/>
    </linearGradient>
    <filter id="shadow_transcript" x="-10%" y="-10%" width="120%" height="120%">
      <feDropShadow dx="0" dy="1" stdDeviation="1" flood-color="#000" flood-opacity="0.3"/>
    </filter>
  </defs>

  <g transform-origin="12 12">
    <animateTransform attributeName="transform" type="scale" values="1; 1.04; 1; 1" keyTimes="0; 0.15; 0.3; 1" dur="2.5s" repeatCount="indefinite" calcMode="spline" keySplines="0.4 0 0.2 1; 0.4 0 0.2 1; 0 0 1 1"/>
    
    <path d="M12 2L4 6V11C4 16 7.5 19.5 12 22C16.5 19.5 20 16 20 11V6L12 2Z" fill="url(#transcriptGrad)" filter="url(#shadow_transcript)"/>
    <path d="M12 2.5L4.5 6.3V11C4.5 15.6 7.8 18.9 12 21.2C16.2 18.9 19.5 15.6 19.5 11V6.3L12 2.5Z" fill="none" stroke="white" stroke-opacity="0.2" stroke-width="0.5"/>

    <g fill="none" stroke="white" stroke-width="1.35" stroke-linecap="round" stroke-linejoin="round"><path d="M8 6.5h6l3 3V18H8V6.5Z"/><path d="M14 6.5V10h3m-6 2h3m-3 2.5h3M10 12h.01m-.01 2.5h.01"/>
          
          <animate attributeName="stroke-dashoffset" values="18; 0; 0; 0" keyTimes="0; 0.15; 0.3; 1" dur="2.5s"  repeatCount="indefinite"/></g>
  </g>
</svg>