<svg width="128" height="128" viewBox="0 0 24 24" xmlns="http://www.w3.org/2000/svg">
  <defs>
    <linearGradient id="messageGrad" x1="0%" y1="0%" x2="100%" y2="100%">
      <stop offset="0%" stop-color="#38BDF8"/>
      <stop offset="100%" stop-color="#075985"/>
    </linearGradient>
    <filter id="shadow_message" x="-10%" y="-10%" width="120%" height="120%">
      <feDropShadow dx="0" dy="1" stdDeviation="1" flood-color="#000" flood-opacity="0.3"/>
    </filter>
  </defs>

  <g transform-origin="12 12">
    <animateTransform attributeName="transform" type="scale" values="1; 1.04; 1; 1" keyTimes="0; 0.15; 0.3; 1" dur="2.5s" repeatCount="indefinite" calcMode="spline" keySplines="0.4 0 0.2 1; 0.4 0 0.2 1; 0 0 1 1"/>
    
    <path d="M12 2L4 6V11C4 16 7.5 19.5 12 22C16.5 19.5 20 16 20 11V6L12 2Z" fill="url(#messageGrad)" filter="url(#shadow_message)"/>
    <path d="M12 2.5L4.5 6.3V11C4.5 15.6 7.8 18.9 12 21.2C16.2 18.9 19.5 15.6 19.5 11V6.3L12 2.5Z" fill="none" stroke="white" stroke-opacity="0.2" stroke-width="0.5"/>

    <g fill="none" stroke="white" stroke-width="1.45" stroke-linecap="round" stroke-linejoin="round"><path d="M7 8h10v7H11l-3.5 2v-2H7V8Z"/><path d="M9.5 11.5h.01m2.5 0h.01m2.5 0h.01"/>
          
          <animate attributeName="opacity" values=".68; 1; .68; .68" keyTimes="0; 0.15; 0.3; 1" dur="2.5s" " repeatCount="indefinite"/></g>
  </g>
</svg>