<svg width="128" height="128" viewBox="0 0 24 24" xmlns="http://www.w3.org/2000/svg">
  <defs><linearGradient id="caseGrad" x1="0%" y1="0%" x2="100%" y2="100%"><stop offset="0%" stop-color="#94A3B8"/><stop offset="100%" stop-color="#334155"/></linearGradient><filter id="shadow"><feDropShadow dx="0" dy="1" stdDeviation="1" flood-opacity="0.3"/></filter></defs>
  <g transform-origin="12 12"><animateTransform attributeName="transform" type="scale" values="1;1.06;1;1" keyTimes="0;.18;.36;1" dur="2.5s" repeatCount="indefinite"/>
    <path d="M12 2 4 6v5c0 5 3.5 8.5 8 11 4.5-2.5 8-6 8-11V6l-8-4Z" fill="url(#caseGrad)" filter="url(#shadow)"/><path d="M12 2.5 4.5 6.3V11c0 4.6 3.3 7.9 7.5 10.2 4.2-2.3 7.5-5.6 7.5-10.2V6.3L12 2.5Z" fill="none" stroke="white" stroke-opacity=".2" stroke-width=".5"/>
    <g fill="none" stroke="white" stroke-width="1.4" stroke-linecap="round" stroke-linejoin="round"><rect x="6.5" y="9" width="11" height="8" rx="1.2"/><path d="M9.5 9V7.5h5V9m-8 3.5h11M11 12.5v1h2v-1"/><animate attributeName="opacity" values=".75;1;.75" dur="2.5s" repeatCount="indefinite"/></g>
  </g>
</svg>
